# AST/ASF file generated using VICON BodyLanguage
# -----------------------------------------------
:version 1.10
:name VICON
:units
  mass 1.0
  length 0.45
  angle deg
:documentation
   .ast/.asf automatically generated from VICON data using
   VICON BodyBuilder and BodyLanguage model FoxedUp or BRILLIANT.MOD
:root
   order TX TY TZ RX RY RZ
   axis XYZ
   position 0 0 0  
   orientation 0 -0 0 
:bonedata
  begin
     id 1 
     name lhipjoint
     direction 0.432694 -0.693742 0.575759 
     length 2.19277 
     axis 0 -0 0  XYZ
  end
  begin
     id 2 
     name lfemur
     direction 0.34202 -0.939693 0  
     length 6.69022  
     axis 0 -0 20  XYZ
    dof rx ry rz
    limits (-160.0 20.0)
           (-70.0 70.0)
           (-60.0 70.0)
  end
  begin
     id 3 
     name ltibia
     direction 0.34202 -0.939693 0   
     length 6.50337   
     axis 0 -0 20   XYZ
    dof rx
    limits (-10.0 170.0)
  end
  begin
     id 4 
     name lfoot
     direction 0.158999 -0.435969 0.885805   
     length 2.70564   
     axis -90 -1.13533e-015 20   XYZ
    dof rx rz
    limits (-45.0 90.0)
           (-70.0 20.0)
  end
  begin
     id 5 
     name ltoes
     direction -0.00592919 0.00964381 0.999936   
     length 1.29929   
     axis -90 -1.13533e-015 20   XYZ
    dof rx
    limits (-90.0 20.0)
  end
  begin
     id 6 
     name rhipjoint
     direction -0.414359 -0.700339 0.581234   
     length 2.17212  
     axis 0 -0 0  XYZ 
  end
  begin
     id 7 
     name rfemur
     direction -0.34202 -0.939693 0   
     length 7.17659   
     axis 0 -0 -20   XYZ
    dof rx ry rz
    limits (-160.0 20.0)
           (-70.0 70.0)
           (-70.0 60.0)
  end
  begin
     id 8 
     name rtibia
     direction -0.34202 -0.939693 0   
     length 6.36669   
     axis 0 -0 -20   XYZ
    dof rx
    limits (-10.0 170.0)
 end
 begin
     id 9 
     name rfoot
     direction -0.137064 -0.37658 0.916188   
     length 2.22351  
     axis -90 1.13533e-015 -20   XYZ
    dof rx rz
    limits (-45.0 90.0)
           (-20.0 70.0)
  end
  begin
     id 10 
     name rtoes
     direction -0.000784077 -0.00289101 0.999996   
     length 1.09522   
     axis -90 1.13533e-015 -20   XYZ
    dof rx
    limits (-90.0 20.0)
  end
  begin
     id 11 
     name lowerback
     direction -0.0176242 0.984912 -0.172157   
     length 1.65301   
     axis 0 -0 0   XYZ
    dof rx ry rz
    limits (-20.0 45.0)
           (-30.0 30.0)
           (-30.0 30.0)
  end
  begin
     id 12 
     name upperback
     direction -0.00218128 0.998776 -0.0494072   
     length 1.67776   
     axis 0 -0 0   XYZ
    dof rx ry rz
    limits (-20.0 45.0)
           (-30.0 30.0)
           (-30.0 30.0)
  end
  begin
     id 13 
     name thorax
     direction 0.00544186 0.999658 0.0255711   
     length 1.72293   
     axis 0 -0 0   XYZ
    dof rx ry rz
    limits (-20.0 45.0)
           (-30.0 30.0)
           (-30.0 30.0)
  end
  begin
     id 14 
     name lowerneck
     direction -0.105325 0.983841 0.144785   
     length 2.14226   
     axis 0 -0 0   XYZ
    dof rx ry rz
    limits (-20.0 45.0)
           (-30.0 30.0)
           (-30.0 30.0)
  end
  begin
     id 15 
     name upperneck
     direction 0.0547957 0.988053 -0.144041   
     length 2.17508   
     axis 0 -0 0   XYZ
    dof rx ry rz
    limits (-20.0 45.0)
           (-30.0 30.0)
           (-30.0 30.0)
  end
  begin
     id 16
     name head
     direction 0.0247488 0.997534 -0.0656813  
     length 2.20048  
     axis 0 -0 0   XYZ
    dof rx ry rz
    limits (-20.0 45.0)
           (-30.0 30.0)
           (-30.0 30.0)
  end
  begin
     id 17 
     name lclavicle
     direction 0.820559 0.567247 -0.0701026  
     length 4.09615  
     axis 0 -0 0   XYZ
    dof ry rz
    limits (-20.0 10.0)
           (0.0 20.0)
  end
  begin
     id 18 
     name lhumerus
     direction 0.999977 -0.0067566 -9.96392e-005   
     length 4.59333   
     axis -180 -30 -90   XYZ
    dof rx ry rz
    limits (-60.0 90.0)
           (-90.0 90.0)
           (-90.0 90.0)
  end
  begin
     id 19
     name lradius
     direction 1 -4.48982e-011 -2.53425e-027   
     length 2.81151   
     axis -180 -30 -90   XYZ
    dof rx
    limits (-10.0 170.0)
  end
  begin
     id 20
     name lwrist
     direction 1 -4.48939e-011 -7.39254e-028   
     length 1.40576   
     axis 2.56395e-016 90 90   XYZ
    dof ry
    limits (-180.0 0.0)
 end
  begin
     id 21 
     name lhand
     direction 1 -4.48939e-011 -1.47851e-027   
     length 0.895651   
     axis 9.43423e-016 90 90   XYZ
    dof rx rz
    limits (-90.0 90.0)
           (-45.0 45.0)
  end
  begin
     id 22 
     name lfingers
     direction 1 -4.48978e-011 -2.95702e-027   
     length 0.722097   
     axis 1.88685e-015 90 90   XYZ
    dof rx
    limits (0.0 90.0)
  end
  begin
     id 23
     name lthumb
     direction 0.707107 -6.34931e-011 0.707107   
     length 1.03679   
     axis -90 45 -9.86935e-015   XYZ
    dof rx rz
    limits (-45.0 45.0)
           (-45.0 45.0)
  end
  begin
     id 24 
     name rclavicle
     direction -0.831414 0.553102 -0.0531864   
     length 4.24872  
     axis 0 -0 0   XYZ 
    dof ry rz
    limits (-10.0 20.0)
           (-20.0 0.0)
  end
  begin
     id 25 
     name rhumerus
     direction -0.999916 -0.000939607 0.0129331  
     length 4.74834   
     axis -180 30 90   XYZ
    dof rx ry rz
    limits (-90.0 60.0)
           (-90.0 90.0)
           (-90.0 90.0)
  end
  begin
     id 26 
     name rradius
     direction -1 -4.48956e-011 -1.31752e-027   
     length 2.79907   
     axis -180 30 90   XYZ
    dof rx
    limits (-10.0 170.0)
  end
  begin
     id 27 
     name rwrist
     direction -1 -4.4897e-011 -7.39254e-028   
     length 1.39954   
     axis 2.56395e-016 -90 -90   XYZ
    dof ry
    limits (-180.0 0.0)
  end
  begin
     id 28
     name rhand
     direction -0.999997 -0.00250697 0.000800838   
     length 0.953304   
     axis 9.43423e-016 -90 -90   XYZ
    dof rx rz
    limits (-90.0 90.0)
           (-45.0 45.0)
  end
  begin
     id 29
     name rfingers
     direction -1 -4.48954e-011 -2.95702e-027   
     length 0.763342   
     axis 1.88685e-015 -90 -90   XYZ
    dof rx
    limits (0.0 90.0)
  end
  begin
     id 30
     name rthumb
     direction -0.709701 -0.00217037 0.7045   
     length 1.10115   
     axis -90 -45 9.86935e-015   XYZ
    dof rx rz
    limits (-45.0 45.0)
           (-45.0 45.0)
  end
:hierarchy
  begin
    root lhipjoint rhipjoint lowerback
    lhipjoint lfemur
    lfemur ltibia
    ltibia lfoot
    lfoot ltoes
    rhipjoint rfemur
    rfemur rtibia
    rtibia rfoot
    rfoot rtoes
    lowerback upperback
    upperback thorax
    thorax lowerneck lclavicle rclavicle
    lowerneck upperneck
    upperneck head
    lclavicle lhumerus
    lhumerus lradius
    lradius lwrist
    lwrist lhand lthumb
    lhand lfingers
    rclavicle rhumerus
    rhumerus rradius
    rradius rwrist
    rwrist rhand rthumb
    rhand rfingers
  end

#!OML:ASF G:\ViconDB\ViconDB\414\test\team2\shane.ASF
:FULLY-SPECIFIED
:DEGREES
129
root 6.27831 13.734 -8.65101 253.808 -12.6996 148.77
lowerback 27.216 7.58607 4.57915
upperback 9.05498 10.1836 3.44638
thorax -4.60494 4.63121 -1.81565
lowerneck -28.2806 -2.77742 -0.87705
upperneck 2.5366 -3.61803 -1.85975
head 5.02899 -2.11902 -0.914557
rclavicle 2.00375e-013 7.87187e-014
rhumerus 36.0881 -29.1656 -64.1473
rradius 22.4246
rwrist 6.56253
rhand -37.4808 -61.2371
rfingers 7.12502
rthumb -10.5384 90.9529
lclavicle 2.00375e-013 7.87187e-014
lhumerus -30.1479 -20.6372 15.9218
lradius 24.8167
lwrist 24.9322
lhand -43.8292 20.8164
lfingers 7.12502
lthumb -16.6568 50.1217
rfemur -88.2593 -18.0692 21.8326
rtibia 83.1859
rfoot -45.5447 -5.26736
rtoes -16.3547
lfemur -9.51436 8.0218 -11.0282
ltibia 57.9815
lfoot -6.55787 -12.7856
ltoes -7.71957
130
root 6.31637 13.7159 -8.47471 252.408 -13.9492 149.046
lowerback 27.2741 7.39534 4.62659
upperback 9.05468 9.92621 3.21413
thorax -4.59227 4.50298 -2.02116
lowerneck -27.8264 -2.26139 -0.708558
upperneck 2.3702 -2.95922 -2.4217
head 4.91104 -1.84491 -1.03951
rclavicle 2.8625e-014 -2.54444e-014
rhumerus 34.1818 -28.6404 -64.0059
rradius 21.8853
rwrist 8.78308
rhand -35.056 -58.0565
rfingers 7.12502
rthumb -8.19878 -87.8774
lclavicle 2.8625e-014 -2.54444e-014
lhumerus -32.5022 -19.9575 18.4328
lradius 23.1345
lwrist 22.4863
lhand -43.0581 19.854
lfingers 7.12502
lthumb -15.9143 49.2201
rfemur -88.0519 -17.4811 21.6332
rtibia 84.8624
rfoot -44.45 -5.62696
rtoes -18.3444
lfemur -10.7157 7.99327 -12.1493
ltibia 57.36
lfoot -7.69216 -13.8832
ltoes -7.097
131
root 6.34332 13.7054 -8.30082 251.244 -15.3013 148.774
lowerback 27.3227 7.0535 4.7951
upperback 8.96941 9.52761 3.15227
thorax -4.6912 4.29874 -2.07654
lowerneck -27.4988 -1.9141 -0.852934
upperneck 2.43035 -2.40453 -3.01333
head 4.89017 -1.62635 -1.14354
rclavicle -6.99722e-014 7.95139e-016
rhumerus 31.8576 -27.7523 -63.0149
rradius 21.8971
rwrist 9.75619
rhand -33.1177 -54.6708
rfingers 7.12502
rthumb -6.32784 -84.5563
lclavicle -6.99722e-014 7.95139e-016
lhumerus -34.8136 -19.5385 21.5603
lradius 21.6638
lwrist 20.3717
lhand -42.8014 19.0723
lfingers 7.12502
lthumb -15.6671 48.458
rfemur -87.9059 -17.5907 21.3273
rtibia 86.3818
rfoot -43.3802 -5.48599
rtoes -18.5991
lfemur -11.9539 7.7208 -13.5025
ltibia 56.7952
lfoot -9.33818 -13.7823
ltoes -7.77003
132
root 6.37513 13.6975 -8.13388 250.19 -17.1726 148.25
lowerback 27.2362 6.45515 5.61463
upperback 8.9349 8.94423 3.05906
thorax -4.56914 4.01802 -2.44476
lowerneck -27.3365 -1.53904 -0.721384
upperneck 2.59087 -1.89491 -3.55986
head 4.92446 -1.42054 -1.28439
rclavicle -3.49861e-014 -5.04913e-014
rhumerus 29.7401 -27.3536 -62.366
rradius 21.7011
rwrist 11.0733
rhand -32.0797 -50.5143
rfingers 7.12502
rthumb -5.32568 -80.4273
lclavicle -3.49861e-014 -5.04913e-014
lhumerus -36.4629 -18.7654 24.4033
lradius 20.4949
lwrist 18.5864
lhand -43.1982 21.3427
lfingers 7.12502
lthumb -16.0492 50.698
rfemur -87.8696 -18.4675 22.0996
rtibia 87.8062
rfoot -42.4171 -5.46195
rtoes -19.6896
lfemur -13.0296 7.32045 -14.2077
ltibia 56.2603
lfoot -10.2912 -13.8854
ltoes -6.48188
133
root 6.40296 13.6953 -7.98173 249.045 -19.0689 147.686
lowerback 27.141 6.09722 6.07839
upperback 8.9258 8.58956 3.38434
thorax -4.53697 3.82964 -2.23774
lowerneck -26.9537 -1.34348 -0.889483
upperneck 2.71929 -1.50652 -4.31791
head 4.9384 -1.29434 -1.45092
rclavicle -1.27222e-014 -4.27139e-014
rhumerus 27.2407 -26.6129 -60.6638
rradius 21.7888
rwrist 11.5342
rhand -31.098 -47.2137
rfingers 7.12502
rthumb -4.3778 -77.1485
lclavicle -1.27222e-014 -4.27139e-014
lhumerus -37.6943 -17.4852 27.5268
lradius 19.5126
lwrist 16.679
lhand -43.6912 21.0378
lfingers 7.12502
lthumb -16.5239 50.3542
rfemur -87.5734 -19.512 23.03
rtibia 89.0407
rfoot -41.6832 -5.67998
rtoes -20.4285
lfemur -13.7561 7.62533 -14.9253
ltibia 55.7956
lfoot -11.4034 -13.8401
ltoes -6.07297
134
root 6.44225 13.6837 -7.83032 247.869 -20.6872 147.354
lowerback 26.9287 5.95796 6.1654
upperback 9.04247 8.39212 3.46756
thorax -4.3177 3.73507 -2.11155
lowerneck -27.1552 -1.16055 -0.609342
upperneck 3.06308 -1.28949 -4.71601
head 5.08085 -1.22107 -1.60596
rclavicle 7.31528e-014 3.12092e-014
rhumerus 25.0381 -26.9346 -59.8226
rradius 22.0117
rwrist 12.7967
rhand -30.2344 -43.672
rfingers 7.12502
rthumb -3.54384 -73.6223
lclavicle 7.31528e-014 3.12092e-014
lhumerus -38.3376 -16.0682 30.2073
lradius 19.0446
lwrist 15.3181
lhand -44.1155 21.7769
lfingers 7.12502
lthumb -16.9324 51.0588
rfemur -87.2957 -20.292 23.8879
rtibia 90.0744
rfoot -41.0081 -5.79009
rtoes -20.9634
lfemur -14.1632 8.76467 -15.6546
ltibia 55.4155
lfoot -12.7759 -13.6909
ltoes -6.76337
